<svg width="450" height="90" viewBox="0 0 500 100" fill="none" xmlns="http://www.w3.org/2000/svg"><defs><linearGradient id="brainGradientH" x1="0%" y1="0%" x2="100%" y2="100%"><stop offset="0%" stop-color="#3B82F6"/><stop offset="100%" stop-color="#10B981"/></linearGradient></defs><g transform="translate(10, 10) scale(0.4)"><circle cx="100" cy="100" r="95" fill="white" stroke="url(#brainGradientH)" stroke-width="3"/><rect x="70" y="55" width="60" height="90" rx="12" fill="#3B82F6" fill-opacity="0.1" stroke="#3B82F6" stroke-width="2.5"/><rect x="85" y="65" width="30" height="2" rx="1" fill="#3B82F6" fill-opacity="0.4"/><circle cx="100" cy="130" r="6" fill="#3B82F6" fill-opacity="0.3"/><path d="M 85 75 Q 75 75 75 85 Q 75 95 80 100 Q 75 105 75 115 Q 75 125 85 125" stroke="#10B981" stroke-width="2.5" fill="none" stroke-linecap="round"/><path d="M 115 75 Q 125 75 125 85 Q 125 95 120 100 Q 125 105 125 115 Q 125 125 115 125" stroke="#10B981" stroke-width="2.5" fill="none" stroke-linecap="round"/><circle cx="100" cy="100" r="4" fill="#3B82F6"/><path d="M 88 100 L 112 100" stroke="#10B981" stroke-width="2" stroke-linecap="round"/><circle cx="90" cy="88" r="2" fill="#10B981"/><circle cx="110" cy="88" r="2" fill="#10B981"/><circle cx="90" cy="112" r="2" fill="#10B981"/><circle cx="110" cy="112" r="2" fill="#10B981"/></g><text x="110" y="55" font-family="Arial, sans-serif" font-size="36" font-weight="bold" fill="#3B82F6">Recepta</text><text x="110" y="55" font-family="Arial, sans-serif" font-size="36" font-weight="bold" fill="url(#brainGradientH)"><tspan fill="#3B82F6">Recepta</tspan><tspan fill="#10B981">AI</tspan></text><text x="112" y="78" font-family="Arial, sans-serif" font-size="12" fill="#6B7280" letter-spacing="2">KI TELEFONASSISTENT</text></svg>