<svg width="396.00000000000006" height="90" viewBox="0 0 440 100" fill="none" xmlns="http://www.w3.org/2000/svg" data-fg-dn8p82=":48.2195:/components/LogoDesign.tsx:193:7:7560:2038:e:svg:etxtetxte"><defs data-fg-dn8p83=":48.2195:/components/LogoDesign.tsx:194:9:7682:255:e:defs:e"><linearGradient id="brainGradientHNC" x1="0%" y1="0%" x2="100%" y2="100%" data-fg-dn8p84=":48.2195:/components/LogoDesign.tsx:195:11:7699:222:e:linearGradient:ete"><stop offset="0%" stop-color="#3B82F6" data-fg-dn8p85=":48.2195:/components/LogoDesign.tsx:196:13:7786:45:e:stop"/><stop offset="100%" stop-color="#10B981" data-fg-dn8p86=":48.2195:/components/LogoDesign.tsx:197:13:7844:49:e:stop"/></linearGradient></defs><g transform="translate(10, 10) scale(0.45)" data-fg-dn8p88=":48.2195:/components/LogoDesign.tsx:202:9:7995:1289:e:g:etetetetetetetetetetete"><circle cx="100" cy="100" r="95" fill="white" stroke="url(#brainGradientHNC)" stroke-width="3" data-fg-dn8p89=":48.2195:/components/LogoDesign.tsx:203:11:8051:95:e:circle"/><rect x="70" y="55" width="60" height="90" rx="12" fill="#3B82F6" fill-opacity="0.1" stroke="#3B82F6" stroke-width="2.5" data-fg-dn8p90=":48.2195:/components/LogoDesign.tsx:204:11:8157:130:e:rect"/><rect x="85" y="65" width="30" height="2" rx="1" fill="#3B82F6" fill-opacity="0.4" data-fg-dn8p91=":48.2195:/components/LogoDesign.tsx:205:11:8298:88:e:rect"/><circle cx="100" cy="130" r="6" fill="#3B82F6" fill-opacity="0.3" data-fg-dn8p92=":48.2195:/components/LogoDesign.tsx:206:11:8397:71:e:circle"/><path d="M 85 75 Q 75 75 75 85 Q 75 95 80 100 Q 75 105 75 115 Q 75 125 85 125" stroke="#10B981" stroke-width="2.5" fill="none" stroke-linecap="round" data-fg-dn8p93=":48.2195:/components/LogoDesign.tsx:208:11:8490:156:e:path"/><path d="M 115 75 Q 125 75 125 85 Q 125 95 120 100 Q 125 105 125 115 Q 125 125 115 125" stroke="#10B981" stroke-width="2.5" fill="none" stroke-linecap="round" data-fg-dn8p94=":48.2195:/components/LogoDesign.tsx:209:11:8657:165:e:path"/><circle cx="100" cy="100" r="4" fill="#3B82F6" data-fg-dn8p95=":48.2195:/components/LogoDesign.tsx:211:11:8844:53:e:circle"/><path d="M 88 100 L 112 100" stroke="#10B981" stroke-width="2" stroke-linecap="round" data-fg-dn8p96=":48.2195:/components/LogoDesign.tsx:212:11:8908:92:e:path"/><circle cx="90" cy="88" r="2" fill="#10B981" data-fg-dn8p97=":48.2195:/components/LogoDesign.tsx:214:11:9022:53:e:circle"/><circle cx="110" cy="88" r="2" fill="#10B981" data-fg-dn8p98=":48.2195:/components/LogoDesign.tsx:215:11:9086:54:e:circle"/><circle cx="90" cy="112" r="2" fill="#10B981" data-fg-dn8p99=":48.2195:/components/LogoDesign.tsx:216:11:9151:54:e:circle"/><circle cx="110" cy="112" r="2" fill="#10B981" data-fg-dn8p100=":48.2195:/components/LogoDesign.tsx:217:11:9216:55:e:circle"/></g><text x="115" y="63" font-family="Arial, sans-serif" font-size="48" font-weight="bold" fill="url(#brainGradientHNC)" data-fg-dn8p102=":48.2195:/components/LogoDesign.tsx:221:9:9352:233:e:text:ete"><tspan fill="#3B82F6" data-fg-dn8p103=":48.2195:/components/LogoDesign.tsx:222:11:9477:42:e:tspan:t">Recepta</tspan><tspan fill="#10B981" data-fg-dn8p105=":48.2195:/components/LogoDesign.tsx:223:11:9530:39:e:tspan:t">AI</tspan></text></svg>